<?xml version="1.0" encoding="UTF-8"?>
<svg width="180px" height="180px" viewBox="0 0 180 180" version="1.1" xmlns="http://www.w3.org/2000/svg" xmlns:xlink="http://www.w3.org/1999/xlink" xmlns:sketch="http://www.bohemiancoding.com/sketch/ns">
    <!-- Generator: Sketch 3.3.2 (12043) - http://www.bohemiancoding.com/sketch -->
    <title>Icon</title>
    <desc>Created with Sketch.</desc>
    <defs></defs>
    <g id="Welcome" stroke="none" stroke-width="1" fill="none" fill-rule="evenodd" sketch:type="MSPage">
        <g id="Icon" sketch:type="MSArtboardGroup" fill="#5273D6">
            <g id="noun_229901_cc-copy-2" sketch:type="MSLayerGroup" transform="translate(0.000000, 45.000000)">
                <path d="M170.172851,11.734641 C172.415264,16.1609326 169.779422,21.2125962 164.286183,23.0194666 L164.793747,24.0213601 C166.755522,27.893689 164.448657,32.3145708 159.642912,33.895312 L159.642912,33.895312 C161.883982,38.3216036 159.249483,43.3732672 153.756244,45.1801376 L150.026052,46.4070784 C148.033393,47.0627452 145.970911,47.3732672 143.94334,47.3732672 C137.589391,47.3732672 131.568447,44.3253905 129.018542,39.2921203 L129.018542,39.2921203 C125.656266,32.6532238 129.609357,25.0751875 137.848544,22.3648818 L170.172851,11.734641 L170.172851,11.734641 Z M135.820974,18.3562261 C128.888294,20.6359124 123.934846,25.5761342 122.659222,31.8211978 C122.361129,33.2807597 122.319503,34.7760261 122.543744,36.2453255 C123.942902,45.3846278 133.225415,51.6989367 143.944683,51.6989367 C146.730914,51.6989367 149.460749,51.2661534 152.056308,50.4124882 L155.401128,49.3121366 C158.861425,48.1739164 161.87324,46.2123259 163.70611,43.5874949 C165.385905,41.1812196 166.065343,38.5131103 165.740394,35.8936891 C169.607548,33.2006947 171.516956,29.0210896 170.658931,24.9085659 C172.487773,23.6610679 173.954069,22.0889824 174.951741,20.2788661 C176.791325,16.9388607 176.66779,13.1044003 174.954426,9.72003454 L174.131313,8.09493309 C173.571382,6.98808969 172.003036,6.4579301 170.630733,6.90910674 L135.820974,18.3562261 L135.820974,18.3562261 Z" id="Shape" sketch:type="MSShapeGroup"></path>
                <path d="M48.7304143,11.734641 C50.9728267,16.1609326 48.3369851,21.2125962 42.8437462,23.0194666 L43.3513102,24.0213601 C45.3130853,27.893689 43.0062204,32.3145708 38.2004756,33.895312 L38.2004756,33.895312 C40.4415452,38.3216036 37.8070464,43.3732672 32.3138075,45.1801376 L28.583615,46.4070784 C26.5909564,47.0627452 24.5284741,47.3732672 22.5009036,47.3732672 C16.1469544,47.3732672 10.1260101,44.3253905 7.57610528,39.2921203 L7.57610528,39.2921203 C4.21382951,32.6532238 8.16692051,25.0751875 16.4061074,22.3648818 L48.7304143,11.734641 L48.7304143,11.734641 Z M14.378537,18.3562261 C7.44585738,20.6359124 2.49240878,25.5761342 1.21678498,31.8211978 C0.918691844,33.2807597 0.877066226,34.7760261 1.10130746,36.2453255 C2.50046535,45.3846278 11.7829783,51.6989367 22.5022464,51.6989367 C25.2884773,51.6989367 28.0183122,51.2661534 30.613871,50.4124882 L33.9586908,49.3121366 C37.4189882,48.1739164 40.4308031,46.2123259 42.2636731,43.5874949 C43.9434682,41.1812196 44.6229057,38.5131103 44.2979574,35.8936891 C48.1651116,33.2006947 50.074519,29.0210896 49.2164941,24.9085659 C51.0453358,23.6610679 52.5116318,22.0889824 53.5093039,20.2788661 C55.3488877,16.9388607 55.2253536,13.1044003 53.5119894,9.72003454 L52.6888764,8.09493309 C52.1289447,6.98808969 50.5605988,6.4579301 49.1882961,6.90910674 L14.378537,18.3562261 L14.378537,18.3562261 Z" id="Shape-Copy-4" sketch:type="MSShapeGroup" transform="translate(27.901066, 29.223584) scale(-1, 1) translate(-27.901066, -29.223584) "></path>
                <path d="M86.7436767,17.3113337 C72.5157718,17.3113337 57.2029152,14.6021099 57.2029152,8.65566683 C57.2029152,2.70922372 72.5157718,0 86.7436767,0 C100.971582,0 116.284438,2.70922372 116.284438,8.65566683 C116.284438,14.6021099 100.971582,17.3113337 86.7436767,17.3113337 L86.7436767,17.3113337 Z M86.7436767,4.14173658 C70.1081997,4.14173658 62.5739628,7.60400331 62.5739628,8.65566683 C62.5739628,9.70733035 70.1081997,13.1695971 86.7436767,13.1695971 C103.379154,13.1695971 110.913391,9.70733035 110.913391,8.65566683 C110.913391,7.60400331 103.379154,4.14173658 86.7436767,4.14173658 L86.7436767,4.14173658 Z" id="Shape" sketch:type="MSShapeGroup"></path>
            </g>
            <g id="noun_56440_cc-copy-2" sketch:type="MSLayerGroup" transform="translate(35.140184, 76.150649)">
                <path d="M88.8184352,12.0917157 C86.3748234,5.87189139 78.7686681,1 71.5028224,1 L35.1629592,1 C27.8959319,1 20.2897766,5.87189139 17.7693589,12.3108219 L14.251645,22.4810026 C6.51078384,22.4810026 0.0720794581,28.0080646 0.0720794581,35.045241 L0.0720794581,42.8879551 C0.0720794581,49.9240575 6.51078384,55.7765567 14.251645,55.7765567 L17.7965364,55.7765567 L17.7965364,64.4355488 L28.4312105,64.4355488 L28.4312105,55.7765567 L78.0596898,55.7765567 L78.0596898,64.4355488 L88.694364,64.4355488 L88.694364,55.7765567 L92.2392554,55.7765567 C99.9801165,55.7765567 106.418821,49.8800214 106.418821,42.843919 L106.418821,35.3696042 C106.418821,28.3335018 99.9789349,22.4810026 92.2392554,22.4810026 L88.8184352,12.0917157 Z M24.7421602,14.3311102 C26.1388474,10.7760043 31.3663806,7.44430078 35.5209933,7.44430078 L70.9699071,7.44430078 C75.1257014,7.44430078 80.5269342,10.7760043 81.8444522,14.112004 L83.9678421,22.4810026 L22.5230582,22.4810026 L24.7421602,14.3311102 L24.7421602,14.3311102 Z M99.3290381,42.8879551 C99.3290381,46.2551022 95.9436669,49.3322559 92.2392554,49.3322559 L14.251645,49.3322559 C10.5472335,49.3322559 7.16186222,46.2551022 7.16186222,42.8879551 L7.16186222,35.3696042 C7.16186222,32.002457 10.5472335,28.9253034 14.251645,28.9253034 L92.2392554,28.9403401 C95.9436669,28.9403401 99.3290381,32.0035311 99.3290381,35.3696042 L99.3290381,42.8879551 L99.3290381,42.8879551 Z" id="Shape" sketch:type="MSShapeGroup"></path>
                <ellipse id="Oval" sketch:type="MSShapeGroup" cx="23.1138734" cy="39.1287796" rx="5.31733707" ry="4.83322559"></ellipse>
                <ellipse id="Oval" sketch:type="MSShapeGroup" cx="83.3770269" cy="39.1287796" rx="5.31733707" ry="4.83322559"></ellipse>
            </g>
            <text id="AngeLift-Copy-3" sketch:type="MSTextLayer" font-family="Helvetica" font-size="20" font-weight="normal">
                <tspan x="47.1508273" y="168">AngeLift</tspan>
            </text>
        </g>
    </g>
</svg>